# xmcd
#
# Track frame offsets:
#	150
#	13126
#	27302
#	38263
#	48494
#	59964
#	69695
#	81243
#	95801
#	106485
#	123121
#	134522
#	148476
#	162462
#	174013
#	187326
#
# Disc length: 2658 seconds
#
# Revision: 1
# Processed by: cddbd v1.5.2PL0 Copyright (c) Steve Scherf et al.
# Submitted via: audiograbber 1.83.01
#
DISCID=f10a6010
DTITLE=Reeves, Jim - CKC054
DYEAR=1900
DGENRE=Karaoke
TTITLE0=Welcome To My World
TTITLE1=Four Walls
TTITLE2=Anna Marie
TTITLE3=Billy Bayou
TTITLE4=Blue Boy
TTITLE5=Home
TTITLE6=Is It Really Over
TTITLE7=Distant Drums
TTITLE8=Snow Flake
TTITLE9=Blue Side Of Lonesome
TTITLE10=I Won't Come In While He's There
TTITLE11=Not Until The Next Time
TTITLE12=Bimbo
TTITLE13=I Love You Because
TTITLE14=Am I Losing You
TTITLE15=He'll Have To Go
EXTD=
EXTT0=
EXTT1=
EXTT2=
EXTT3=
EXTT4=
EXTT5=
EXTT6=
EXTT7=
EXTT8=
EXTT9=
EXTT10=
EXTT11=
EXTT12=
EXTT13=
EXTT14=
EXTT15=
PLAYORDER=
